<?xml version="1.0" standalone="no"?>
<!DOCTYPE svg PUBLIC "-//W3C//DTD SVG 20010904//EN"
 "http://www.w3.org/TR/2001/REC-SVG-20010904/DTD/svg10.dtd">
<svg version="1.0" xmlns="http://www.w3.org/2000/svg"
 width="512.000000pt" height="512.000000pt" viewBox="0 0 512.000000 512.000000"
 preserveAspectRatio="xMidYMid meet">
<metadata>

</metadata>
<g transform="translate(0.000000,512.000000) scale(0.100000,-0.100000)"
fill="#000000" stroke="none">
<path d="M2575 3696 c-8 -43 -26 -296 -21 -304 2 -4 81 -28 175 -52 97 -26
169 -49 167 -55 -2 -6 -29 -46 -61 -90 -31 -44 -74 -110 -96 -147 l-39 -66 0
-149 c0 -81 7 -267 17 -413 14 -231 15 -292 3 -475 -7 -115 -15 -258 -17 -317
l-5 -106 43 -47 c80 -86 87 -89 192 -76 212 28 392 53 395 55 9 10 79 183 75
189 -2 4 -13 7 -24 7 -24 0 -24 3 6 75 24 59 25 64 25 364 l0 304 143 -6 c78
-4 175 -7 215 -7 l72 0 0 -420 c0 -475 -4 -447 81 -524 56 -50 60 -51 171 -36
40 5 127 16 193 25 66 9 135 18 153 22 l32 5 0 98 0 98 -92 22 c-51 12 -101
24 -110 26 -17 5 -18 53 -18 834 0 559 -3 838 -11 857 -11 30 -67 92 -110 124
-57 40 -697 131 -1304 184 -99 8 -195 17 -213 18 -26 2 -33 -1 -37 -17z m696
-452 c25 -7 29 -126 29 -886 l0 -688 -25 0 c-21 0 -72 9 -154 26 l-24 5 7 727
c4 400 9 751 12 780 l6 53 67 -6 c36 -4 73 -9 82 -11z m329 -39 c69 -8 151
-17 183 -21 l57 -7 0 -343 0 -344 -78 0 c-44 0 -140 -3 -215 -7 l-137 -6 0
377 0 377 33 -6 c17 -3 88 -12 157 -20z"/>
<path d="M1384 3660 c-241 -86 -617 -376 -695 -537 -43 -90 -37 -369 11 -463
39 -77 180 -193 460 -380 184 -122 293 -201 338 -243 l32 -31 0 -114 0 -114
28 6 c46 11 132 57 170 90 44 39 62 81 62 148 -1 118 -51 169 -395 403 -223
152 -407 289 -431 320 -41 54 -57 105 -57 190 -1 83 4 99 57 172 l23 32 7 -77
c13 -151 25 -196 64 -243 58 -71 131 -126 448 -337 164 -110 318 -217 340
-239 38 -35 42 -43 48 -103 3 -36 2 -107 -2 -158 -8 -77 -13 -97 -33 -118 -36
-39 -146 -117 -220 -158 l-66 -36 -109 15 c-60 9 -183 30 -274 48 -192 38
-167 8 -200 237 -12 80 -24 153 -26 163 -5 15 -20 17 -134 17 l-129 0 -5 -32
c-6 -39 -28 -679 -24 -684 7 -6 303 -23 603 -35 286 -11 315 -11 370 5 194 56
501 289 571 433 26 53 28 64 32 242 2 105 0 225 -7 276 -11 89 -11 89 -62 141
-67 67 -176 149 -346 256 -278 175 -336 214 -383 258 -48 44 -48 46 -55 124
-8 88 -1 196 15 225 12 24 49 28 150 19 96 -9 261 -52 275 -72 6 -8 22 -90 35
-183 12 -92 27 -174 33 -180 7 -9 45 -13 127 -13 82 0 120 4 127 13 9 11 34
475 33 618 l0 56 -127 17 c-168 23 -447 46 -548 45 -51 0 -99 -7 -131 -19z"/>
</g>
</svg>
